<?xml version="1.0" encoding="UTF-8"?>
<svg width="1200pt" height="1200pt" version="1.1" viewBox="0 0 1200 1200" xmlns="http://www.w3.org/2000/svg">
 <defs>
  <clipPath id="d">
   <path d="m374 905h180v72.859h-180z"/>
  </clipPath>
  <clipPath id="c">
   <path d="m565 905h70v72.859h-70z"/>
  </clipPath>
  <clipPath id="b">
   <path d="m646 905h180v72.859h-180z"/>
  </clipPath>
  <clipPath id="a">
   <path d="m593 222.14h14v89.855h-14z"/>
  </clipPath>
 </defs>
 <path d="m1200 600c0 214.36-114.36 412.44-300 519.62-185.64 107.18-414.36 107.18-600 0-185.64-107.18-300-305.26-300-519.62s114.36-412.44 300-519.62c185.64-107.18 414.36-107.18 600 0 185.64 107.18 300 305.26 300 519.62z" fill="#2562eb"/>
 <path d="m474.61 821.17h26.793v72.25h-26.793z" fill="#fff"/>
 <path d="m410.44 893.42h51.977v-72.25h-51.977c-19.918 0-36.125 16.207-36.125 36.125s16.207 36.125 36.125 36.125z" fill="#fff"/>
 <g clip-path="url(#d)">
  <path d="m374.32 941.73c0 19.918 16.207 36.125 36.125 36.125h143.19v-72.25h-143.19c-19.918 0-36.125 16.207-36.125 36.125z" fill="#fff"/>
 </g>
 <path d="m399.14 736.38c26.184-11.363 55.719-17.625 83.18-17.625 26.824 0 49.742 5.793 66.277 16.746 12.816 8.4883 20.156 18.766 26.055 27.023 6.668 9.3398 11.801 13.48 19.254 14.766v-31.898c-15.562-24.098-37.961-37.535-68.449-41.008-3.3438-0.38281-5.7461-3.4023-5.3633-6.7461s3.4062-5.7422 6.7461-5.3633c28.195 3.2109 50.289 14.047 67.066 32.941v-26.324c-9.2422-8.5977-57.816-48.922-143.33-36.25-81.078 12.012-139.57 63.617-156.38 80.004 14.41 11.105 23.004 27.527 25.695 48.98 14.012-14.133 42.133-39.133 79.25-55.246z" fill="#fff"/>
 <g clip-path="url(#c)">
  <path d="m565.82 905.61h68.355v72.25h-68.355z" fill="#fff"/>
 </g>
 <path d="m606.09 698.88v26.336c16.777-18.895 38.871-29.73 67.066-32.941 3.3594-0.37109 6.3672 2.0234 6.7461 5.3633 0.38281 3.3438-2.0234 6.3672-5.3633 6.7461-30.488 3.4727-52.883 16.91-68.449 41.008v31.898c7.457-1.2852 12.586-5.4258 19.254-14.766 5.8984-8.2578 13.242-18.539 26.059-27.027 16.535-10.953 39.453-16.746 66.277-16.746 27.457 0 56.996 6.2578 83.18 17.625 37.121 16.117 65.238 41.117 79.254 55.246 2.6914-21.453 11.285-37.875 25.695-48.98-16.805-16.387-75.305-67.992-156.38-80.004-85.816-12.715-134.12 27.613-143.34 36.242z" fill="#fff"/>
 <path d="m796.01 747.56c-24.684-10.715-52.5-16.613-78.324-16.613-24.422 0-45.012 5.0898-59.543 14.719-10.938 7.2461-17.555 16.504-22.867 23.949-8.9648 12.559-17.996 20.344-35.266 20.344-17.273 0-26.301-7.7852-35.266-20.348-5.3125-7.4414-11.93-16.703-22.867-23.945-14.531-9.6289-35.121-14.719-59.543-14.719-25.824 0-53.641 5.9023-78.324 16.613-50.348 21.859-83.219 60.84-84.594 62.488-3.2812 3.9414-2.918 10.199 0.79297 13.664 1.5664 1.4609 3.5586 2.2617 5.6094 2.2617 2.4258 0 4.7539-1.1211 6.3828-3.0742 0.32422-0.38672 31.883-37.547 78.176-57.641 29.043-12.609 54.793-15.258 71.281-15.258 21.113 0 39.797 4.3555 51.262 11.953 8.207 5.4336 13.043 12.207 18.164 19.383 9.2578 12.961 19.746 27.648 48.926 27.648 29.184 0 39.672-14.691 48.93-27.648 5.1211-7.1719 9.9609-13.945 18.168-19.383 11.461-7.5938 30.145-11.953 51.262-11.953 16.484 0 42.234 2.6484 71.281 15.258 46.293 20.094 77.852 57.254 78.164 57.625 1.6445 1.9688 3.9688 3.0898 6.3945 3.0898 2.0508 0 4.043-0.80469 5.6133-2.2656 3.7148-3.4609 4.0742-9.7188 0.78906-13.664-1.3828-1.6484-34.254-40.629-84.602-62.484z" fill="#fff"/>
 <g clip-path="url(#b)">
  <path d="m789.56 905.61h-143.19v72.25h143.19c19.918 0 36.125-16.207 36.125-36.125s-16.207-36.125-36.125-36.125z" fill="#fff"/>
 </g>
 <path d="m789.56 821.17h-275.98v72.25h275.98c19.918 0 36.125-16.207 36.125-36.125s-16.207-36.125-36.125-36.125z" fill="#fff"/>
 <path d="m554.08 615.79c-0.015625 10.168 8.2461 18.449 18.41 18.461l54.48 0.074218h0.023438c10.156 0 18.422-8.2539 18.438-18.414v-1.6562l-91.352-0.125z" fill="#fff"/>
 <path d="m614.67 569.74 0.035156-25.941c0.019531-12.922 4.5938-25.508 12.875-35.438 8.0859-9.6914 13.461-18.5 15.539-25.477 2.2383-7.5 1.332-15.539-2.4766-22.066-3.0859-5.2852-7.7188-8.9648-12.707-10.102-7.9453-1.8086-13.832 1.3984-17.602 4.7891 7.4766 4.3438 12.617 13.195 12.602 23.41-0.007812 6.8125-2.2812 13.258-6.4023 18.152-4.3711 5.1953-10.266 8.0547-16.602 8.0547h-0.03125c-6.3477-0.007813-12.242-2.8828-16.609-8.0977-4.1055-4.9062-6.3594-11.359-6.3516-18.168 0.015625-10.215 5.1797-19.055 12.676-23.379-3.7578-3.4102-9.6289-6.6289-17.598-4.8359-4.9922 1.1211-9.6328 4.793-12.73 10.066-3.8281 6.5156-4.7539 14.559-2.5391 22.059 2.0586 6.9766 7.4102 15.801 15.473 25.516 8.2578 9.9492 12.797 22.551 12.781 35.473l-0.035156 25.941z" fill="#fff"/>
 <path d="m599.93 492.93h0.011719c2.6797 0 5.2617-1.3164 7.2773-3.7148 2.2773-2.7031 3.5312-6.3711 3.5391-10.32 0.011719-7.7461-4.8281-14.059-10.789-14.066h-0.011719c-5.9531 0-10.805 6.293-10.816 14.035-0.007813 3.9492 1.2383 7.6211 3.5117 10.332 2.0117 2.4062 4.5938 3.7344 7.2773 3.7344z" fill="#fff"/>
 <path d="m645.48 581.97-24.719-0.03125h-0.019531l-66.613-0.089844-0.027344 20.094 91.352 0.125z" fill="#fff"/>
 <path d="m668.61 501.84c16.617-17.566 25.785-40.551 25.816-64.75 0.035156-25.223-9.7539-48.949-27.566-66.809-17.809-17.859-41.508-27.715-66.734-27.75h-0.13281c-25.172 0-48.848 9.7852-66.676 27.566-17.859 17.809-27.715 41.508-27.75 66.73-0.035156 24.199 9.0703 47.211 25.641 64.82 19.656 18.844 22.594 42.789 22.891 68.004l18.676 0.027344 0.035156-25.941c0.015625-10.082-3.5273-19.906-9.9688-27.672-9.2383-11.137-15.223-21.18-17.781-29.852-3.168-10.723-1.8086-22.273 3.7188-31.684 4.8008-8.1719 12.297-13.926 20.566-15.785 13.797-3.1016 24.312 3.1562 30.633 9.8164 6.3398-6.6445 16.871-12.871 30.66-9.7305 8.2656 1.8828 15.746 7.6562 20.527 15.84 5.5039 9.4297 6.8281 20.98 3.6328 31.699-2.5859 8.668-8.5938 18.695-17.863 29.801-6.4648 7.7461-10.031 17.562-10.047 27.645l-0.035156 25.941 18.676 0.027344c0.37109-25.219 3.375-49.156 23.082-67.945z" fill="#fff"/>
 <g clip-path="url(#a)">
  <path d="m600 311.49c3.3672 0 6.0938-2.7305 6.0938-6.0938v-77.16c0-3.3672-2.7305-6.0938-6.0938-6.0938-3.3672 0-6.0938 2.7305-6.0938 6.0938v77.156c0 3.3672 2.7305 6.0977 6.0938 6.0977z" fill="#fff"/>
 </g>
 <path d="m527.94 324.14c1.1914 1.6367 3.0469 2.5078 4.9297 2.5078 1.2461 0 2.5-0.37891 3.5859-1.168 2.7188-1.9805 3.3203-5.793 1.3359-8.5156l-45.832-62.918c-1.9805-2.7188-5.793-3.3164-8.5156-1.3359-2.7188 1.9805-3.3203 5.793-1.3359 8.5156z" fill="#fff"/>
 <path d="m289.41 262.72 184.16 121.7c1.0352 0.68359 2.1992 1.0117 3.3516 1.0117 1.9766 0 3.918-0.96094 5.0898-2.7344 1.8555-2.8086 1.0859-6.5898-1.7266-8.4453l-184.16-121.71c-2.8047-1.8594-6.5898-1.082-8.4453 1.7266-1.8555 2.8086-1.082 6.5859 1.7266 8.4453z" fill="#fff"/>
 <path d="m455.36 474.99c2.9727 0 5.5742-2.1797 6.0195-5.207 0.49219-3.332-1.8086-6.4297-5.1406-6.918l-208.5-30.773c-3.3359-0.49609-6.4297 1.8086-6.918 5.1406-0.49219 3.3281 1.8086 6.4297 5.1406 6.918l208.51 30.77c0.29688 0.046875 0.59766 0.070313 0.89453 0.070313z" fill="#fff"/>
 <path d="m663.54 325.48c1.082 0.78906 2.3398 1.168 3.5859 1.168 1.8789 0 3.7383-0.86719 4.9297-2.5078l45.832-62.918c1.9805-2.7227 1.3828-6.5352-1.3359-8.5156s-6.5312-1.3828-8.5156 1.3359l-45.832 62.918c-1.9805 2.7266-1.3828 6.5391 1.3359 8.5195z" fill="#fff"/>
 <path d="m717.98 382.7c1.1719 1.7734 3.1094 2.7344 5.0898 2.7344 1.1523 0 2.3203-0.32422 3.3516-1.0117l184.16-121.7c2.8086-1.8555 3.582-5.6367 1.7266-8.4453-1.8555-2.8047-5.6328-3.582-8.4453-1.7266l-184.16 121.71c-2.8086 1.8555-3.5781 5.6367-1.7227 8.4414z" fill="#fff"/>
 <path d="m959.19 437.23c-0.49219-3.332-3.5742-5.6328-6.918-5.1406l-208.51 30.77c-3.332 0.49219-5.6289 3.5898-5.1406 6.918 0.44531 3.0273 3.0469 5.207 6.0195 5.207 0.29688 0 0.59766-0.023437 0.89844-0.066406l208.51-30.77c3.332-0.49219 5.6328-3.5898 5.1406-6.918z" fill="#fff"/>
</svg>
